<svg xmlns:xlink="http://www.w3.org/1999/xlink" id="wave" style="transform:rotate(180deg); transition: 0.3s" viewBox="0 0 1440 300" version="1.1" xmlns="http://www.w3.org/2000/svg"><defs><linearGradient id="sw-gradient-0" x1="0" x2="0" y1="1" y2="0"><stop stop-color="rgba(243, 106, 62, 1)" offset="0%"/><stop stop-color="rgba(255, 179, 11, 1)" offset="100%"/></linearGradient></defs><path style="transform:translate(0, 0px); opacity:1" fill="url(#sw-gradient-0)" d="M0,150L120,135C240,120,480,90,720,80C960,70,1200,80,1440,110C1680,140,1920,190,2160,210C2400,230,2640,220,2880,215C3120,210,3360,210,3600,190C3840,170,4080,130,4320,120C4560,110,4800,130,5040,125C5280,120,5520,90,5760,100C6000,110,6240,160,6480,180C6720,200,6960,190,7200,175C7440,160,7680,140,7920,120C8160,100,8400,80,8640,100C8880,120,9120,180,9360,190C9600,200,9840,160,10080,165C10320,170,10560,220,10800,200C11040,180,11280,90,11520,75C11760,60,12000,120,12240,125C12480,130,12720,80,12960,90C13200,100,13440,170,13680,185C13920,200,14160,160,14400,145C14640,130,14880,140,15120,155C15360,170,15600,190,15840,175C16080,160,16320,110,16560,80C16800,50,17040,40,17160,35L17280,30L17280,300L17160,300C17040,300,16800,300,16560,300C16320,300,16080,300,15840,300C15600,300,15360,300,15120,300C14880,300,14640,300,14400,300C14160,300,13920,300,13680,300C13440,300,13200,300,12960,300C12720,300,12480,300,12240,300C12000,300,11760,300,11520,300C11280,300,11040,300,10800,300C10560,300,10320,300,10080,300C9840,300,9600,300,9360,300C9120,300,8880,300,8640,300C8400,300,8160,300,7920,300C7680,300,7440,300,7200,300C6960,300,6720,300,6480,300C6240,300,6000,300,5760,300C5520,300,5280,300,5040,300C4800,300,4560,300,4320,300C4080,300,3840,300,3600,300C3360,300,3120,300,2880,300C2640,300,2400,300,2160,300C1920,300,1680,300,1440,300C1200,300,960,300,720,300C480,300,240,300,120,300L0,300Z"/>
        </svg>